<?xml version="1.0" encoding="UTF-8"?>
<svg width="35.008mm" height="39.75mm" version="1.1" viewBox="0 0 35.008 39.75" xmlns="http://www.w3.org/2000/svg"><defs><clipPath id="clipPath2"><path transform="translate(-152.15 -122.95)" d="M 0,147.569 H 228.835 V 0 H 0 Z"/></clipPath><clipPath id="clipPath4"><path transform="translate(-151.1 -130.49)" d="M 0,147.569 H 228.835 V 0 H 0 Z"/></clipPath><clipPath id="clipPath6"><path transform="translate(-205.5 -54.093)" d="M 0,147.569 H 228.835 V 0 H 0 Z"/></clipPath><clipPath id="clipPath8"><path transform="translate(-204.61 -57.943)" d="M 0,147.569 H 228.835 V 0 H 0 Z"/></clipPath><clipPath id="clipPath10"><path transform="translate(-140.97 -114.6)" d="M 0,147.569 H 228.835 V 0 H 0 Z"/></clipPath><clipPath id="clipPath12"><path transform="translate(-175.57 -60.434)" d="M 0,147.569 H 228.835 V 0 H 0 Z"/></clipPath><clipPath id="clipPath14"><path transform="translate(-162.03 -102.01)" d="M 0,147.569 H 228.835 V 0 H 0 Z"/></clipPath><clipPath id="clipPath16"><path transform="translate(-157.14 -105.95)" d="M 0,147.569 H 228.835 V 0 H 0 Z"/></clipPath><clipPath id="clipPath18"><path transform="translate(-175.01 -112.75)" d="M 0,147.569 H 228.835 V 0 H 0 Z"/></clipPath><clipPath id="clipPath20"><path transform="translate(-140.97 -118.23)" d="M 0,147.569 H 228.835 V 0 H 0 Z"/></clipPath><clipPath id="clipPath22"><path transform="translate(-140.97 -104.33)" d="M 0,147.569 H 228.835 V 0 H 0 Z"/></clipPath><clipPath id="clipPath24"><path transform="translate(-125.56 -89.103)" d="M 0,147.569 H 228.835 V 0 H 0 Z"/></clipPath><clipPath id="clipPath26"><path transform="translate(-138.64 -99.385)" d="M 0,147.569 H 228.835 V 0 H 0 Z"/></clipPath><clipPath id="clipPath28"><path transform="translate(-177.27 -70.559)" d="M 0,147.569 H 228.835 V 0 H 0 Z"/></clipPath><clipPath id="clipPath30"><path transform="translate(-170.61 -59.44)" d="M 0,147.569 H 228.835 V 0 H 0 Z"/></clipPath><clipPath id="clipPath32"><path transform="translate(-181.53 -75.15)" d="M 0,147.569 H 228.835 V 0 H 0 Z"/></clipPath><clipPath id="clipPath34"><path transform="translate(-181.11 -56.186)" d="M 0,147.569 H 228.835 V 0 H 0 Z"/></clipPath><clipPath id="clipPath36"><path transform="translate(-180.03 -82.725)" d="M 0,147.569 H 228.835 V 0 H 0 Z"/></clipPath><clipPath id="clipPath38"><path transform="translate(-174.51 -81.465)" d="M 0,147.569 H 228.835 V 0 H 0 Z"/></clipPath><clipPath id="clipPath40"><path transform="translate(-172.35 -97.617)" d="M 0,147.569 H 228.835 V 0 H 0 Z"/></clipPath><clipPath id="clipPath42"><path transform="translate(-158.84 -84.927)" d="M 0,147.569 H 228.835 V 0 H 0 Z"/></clipPath><clipPath id="clipPath44"><path transform="translate(-194.74 -80.034)" d="M 0,147.569 H 228.835 V 0 H 0 Z"/></clipPath><clipPath id="clipPath46"><path transform="translate(-171.32 -42.118)" d="M 0,147.569 H 228.835 V 0 H 0 Z"/></clipPath><clipPath id="clipPath48"><path transform="translate(-174.04 -38.968)" d="M 0,147.569 H 228.835 V 0 H 0 Z"/></clipPath><clipPath id="clipPath50"><path transform="translate(-192.03 -90.36)" d="M 0,147.569 H 228.835 V 0 H 0 Z"/></clipPath><clipPath id="clipPath52"><path transform="translate(-143.43 -112.41)" d="M 0,147.569 H 228.835 V 0 H 0 Z"/></clipPath><clipPath id="clipPath54"><path transform="translate(-137.11 -111.73)" d="M 0,147.569 H 228.835 V 0 H 0 Z"/></clipPath><clipPath id="clipPath56"><path transform="translate(-145.5 -94.216)" d="M 0,147.569 H 228.835 V 0 H 0 Z"/></clipPath><clipPath id="clipPath58"><path transform="translate(-127.26 -86.388)" d="M 0,147.569 H 228.835 V 0 H 0 Z"/></clipPath><clipPath id="clipPath60"><path transform="translate(-181.73 -80.01)" d="M 0,147.569 H 228.835 V 0 H 0 Z"/></clipPath><clipPath id="clipPath62"><path transform="translate(-172.31 -56.725)" d="M 0,147.569 H 228.835 V 0 H 0 Z"/></clipPath><clipPath id="clipPath64"><path transform="translate(-181.53 -66.348)" d="M 0,147.569 H 228.835 V 0 H 0 Z"/></clipPath><clipPath id="clipPath66"><path transform="translate(-177.63 -50.857)" d="M 0,147.569 H 228.835 V 0 H 0 Z"/></clipPath><clipPath id="clipPath68"><path transform="translate(-176.57 -76.505)" d="M 0,147.569 H 228.835 V 0 H 0 Z"/></clipPath><clipPath id="clipPath70"><path transform="translate(-189.35 -52.633)" d="M 0,147.569 H 228.835 V 0 H 0 Z"/></clipPath><clipPath id="clipPath72"><path transform="translate(-183.65 -39.443)" d="M 0,147.569 H 228.835 V 0 H 0 Z"/></clipPath><clipPath id="clipPath74"><path transform="translate(-200.16 -41.859)" d="M 0,147.569 H 228.835 V 0 H 0 Z"/></clipPath><clipPath id="clipPath76"><path transform="translate(-171.04 -75.617)" d="M 0,147.569 H 228.835 V 0 H 0 Z"/></clipPath><clipPath id="clipPath78"><path transform="translate(-159.5 -76.103)" d="M 0,147.569 H 228.835 V 0 H 0 Z"/></clipPath><clipPath id="clipPath80"><path transform="translate(-166.42 -80.51)" d="M 0,147.569 H 228.835 V 0 H 0 Z"/></clipPath><clipPath id="clipPath82"><path transform="translate(-153.95 -82.212)" d="M 0,147.569 H 228.835 V 0 H 0 Z"/></clipPath><clipPath id="clipPath84"><path transform="translate(-177.92 -84.901)" d="M 0,147.569 H 228.835 V 0 H 0 Z"/></clipPath><clipPath id="clipPath86"><path transform="translate(-169.66 -86.603)" d="M 0,147.569 H 228.835 V 0 H 0 Z"/></clipPath><clipPath id="clipPath88"><path transform="translate(-159.5 -114.59)" d="M 0,147.569 H 228.835 V 0 H 0 Z"/></clipPath><clipPath id="clipPath90"><path transform="translate(-143.8 -124.21)" d="M 0,147.569 H 228.835 V 0 H 0 Z"/></clipPath><clipPath id="clipPath92"><path transform="translate(-122.24 -106.9)" d="M 0,147.569 H 228.835 V 0 H 0 Z"/></clipPath><clipPath id="clipPath94"><path transform="translate(-166.42 -111.21)" d="M 0,147.569 H 228.835 V 0 H 0 Z"/></clipPath><clipPath id="clipPath96"><path transform="translate(-160.27 -93.006)" d="M 0,147.569 H 228.835 V 0 H 0 Z"/></clipPath><clipPath id="clipPath98"><path transform="translate(-158.84 -88.304)" d="M 0,147.569 H 228.835 V 0 H 0 Z"/></clipPath><clipPath id="clipPath100"><path transform="translate(-170.94 -91.553)" d="M 0,147.569 H 228.835 V 0 H 0 Z"/></clipPath><clipPath id="clipPath102"><path transform="translate(-182.44 -96.196)" d="M 0,147.569 H 228.835 V 0 H 0 Z"/></clipPath><clipPath id="clipPath104"><path transform="translate(-188.12 -60.967)" d="M 0,147.569 H 228.835 V 0 H 0 Z"/></clipPath><clipPath id="clipPath106"><path transform="translate(-176.71 -42.687)" d="M 0,147.569 H 228.835 V 0 H 0 Z"/></clipPath><clipPath id="clipPath108"><path transform="translate(-168.33 -24.962)" d="M 0,147.569 H 228.835 V 0 H 0 Z"/></clipPath><clipPath id="clipPath110"><path transform="translate(-169.12 -35.671)" d="M 0,147.569 H 228.835 V 0 H 0 Z"/></clipPath><clipPath id="clipPath112"><path transform="translate(-159.5 -48.001)" d="M 0,147.569 H 228.835 V 0 H 0 Z"/></clipPath><clipPath id="clipPath114"><path transform="translate(-166.42 -46.864)" d="M 0,147.569 H 228.835 V 0 H 0 Z"/></clipPath><clipPath id="clipPath116"><path transform="translate(-177.28 -104.8)" d="M 0,147.569 H 228.835 V 0 H 0 Z"/></clipPath><clipPath id="clipPath118"><path transform="translate(-178.38 -108.93)" d="M 0,147.569 H 228.835 V 0 H 0 Z"/></clipPath><clipPath id="clipPath120"><path transform="translate(-175.93 -92.726)" d="M 0,147.569 H 228.835 V 0 H 0 Z"/></clipPath><clipPath id="clipPath122"><path transform="translate(-160.27 -70.106)" d="M 0,147.569 H 228.835 V 0 H 0 Z"/></clipPath><clipPath id="clipPath124"><path transform="translate(-134.21 -107.52)" d="M 0,147.569 H 228.835 V 0 H 0 Z"/></clipPath><clipPath id="clipPath126"><path transform="translate(-133.3 -103.83)" d="M 0,147.569 H 228.835 V 0 H 0 Z"/></clipPath><clipPath id="clipPath128"><path transform="translate(-120.38 -101.68)" d="M 0,147.569 H 228.835 V 0 H 0 Z"/></clipPath><clipPath id="clipPath130"><path transform="translate(-137.38 -82.279)" d="M 0,147.569 H 228.835 V 0 H 0 Z"/></clipPath><clipPath id="clipPath132"><path transform="translate(-147.64 -105.04)" d="M 0,147.569 H 228.835 V 0 H 0 Z"/></clipPath><clipPath id="clipPath134"><path transform="translate(-144.96 -98.636)" d="M 0,147.569 H 228.835 V 0 H 0 Z"/></clipPath><clipPath id="clipPath136"><path transform="translate(-186.42 -76.82)" d="M 0,147.569 H 228.835 V 0 H 0 Z"/></clipPath><clipPath id="clipPath138"><path transform="translate(-165.42 -84.403)" d="M 0,147.569 H 228.835 V 0 H 0 Z"/></clipPath><clipPath id="clipPath140"><path transform="translate(-162.68 -87.806)" d="M 0,147.569 H 228.835 V 0 H 0 Z"/></clipPath><clipPath id="clipPath142"><path transform="translate(-166.62 -89.578)" d="M 0,147.569 H 228.835 V 0 H 0 Z"/></clipPath><clipPath id="clipPath144"><path transform="translate(-165.08 -92.982)" d="M 0,147.569 H 228.835 V 0 H 0 Z"/></clipPath><clipPath id="clipPath146"><path transform="translate(-155.19 -117.55)" d="M 0,147.569 H 228.835 V 0 H 0 Z"/></clipPath><clipPath id="clipPath148"><path transform="translate(-140.41 -122.49)" d="M 0,147.569 H 228.835 V 0 H 0 Z"/></clipPath><clipPath id="clipPath150"><path transform="translate(-148.94 -120.6)" d="M 0,147.569 H 228.835 V 0 H 0 Z"/></clipPath><clipPath id="clipPath152"><path transform="translate(-135.8 -121.28)" d="M 0,147.569 H 228.835 V 0 H 0 Z"/></clipPath><clipPath id="clipPath154"><path transform="translate(-132.33 -119.41)" d="M 0,147.569 H 228.835 V 0 H 0 Z"/></clipPath><clipPath id="clipPath156"><path transform="translate(-150.23 -124.19)" d="M 0,147.569 H 228.835 V 0 H 0 Z"/></clipPath><clipPath id="clipPath158"><path transform="translate(-176.64 -97.119)" d="M 0,147.569 H 228.835 V 0 H 0 Z"/></clipPath><clipPath id="clipPath160"><path transform="translate(-180.74 -98.086)" d="M 0,147.569 H 228.835 V 0 H 0 Z"/></clipPath><clipPath id="clipPath162"><path transform="translate(-169.16 -114.59)" d="M 0,147.569 H 228.835 V 0 H 0 Z"/></clipPath><clipPath id="clipPath164"><path transform="translate(-183.73 -100.69)" d="M 0,147.569 H 228.835 V 0 H 0 Z"/></clipPath><clipPath id="clipPath166"><path transform="translate(-173.2 -107.04)" d="M 0,147.569 H 228.835 V 0 H 0 Z"/></clipPath><clipPath id="clipPath168"><path transform="translate(-185.45 -104)" d="M 0,147.569 H 228.835 V 0 H 0 Z"/></clipPath><clipPath id="clipPath170"><path transform="translate(-174.51 -110.01)" d="M 0,147.569 H 228.835 V 0 H 0 Z"/></clipPath><clipPath id="clipPath172"><path transform="translate(-179.37 -94.675)" d="M 0,147.569 H 228.835 V 0 H 0 Z"/></clipPath><clipPath id="clipPath174"><path transform="translate(-180.15 -91.553)" d="M 0,147.569 H 228.835 V 0 H 0 Z"/></clipPath><clipPath id="clipPath176"><path transform="translate(-183.94 -91.3)" d="M 0,147.569 H 228.835 V 0 H 0 Z"/></clipPath><clipPath id="clipPath178"><path transform="translate(-191.97 -81.777)" d="M 0,147.569 H 228.835 V 0 H 0 Z"/></clipPath><clipPath id="clipPath180"><path transform="translate(-190.55 -58.57)" d="M 0,147.569 H 228.835 V 0 H 0 Z"/></clipPath><clipPath id="clipPath182"><path transform="translate(-193.84 -71.808)" d="M 0,147.569 H 228.835 V 0 H 0 Z"/></clipPath><clipPath id="clipPath184"><path transform="translate(-202.83 -48.068)" d="M 0,147.569 H 228.835 V 0 H 0 Z"/></clipPath><clipPath id="clipPath186"><path transform="translate(-203.07 -44.389)" d="M 0,147.569 H 228.835 V 0 H 0 Z"/></clipPath><clipPath id="clipPath188"><path transform="translate(-201.51 -79.4)" d="M 0,147.569 H 228.835 V 0 H 0 Z"/></clipPath><clipPath id="clipPath190"><path transform="translate(-188.07 -56.186)" d="M 0,147.569 H 228.835 V 0 H 0 Z"/></clipPath><clipPath id="clipPath192"><path transform="translate(-185.35 -47.231)" d="M 0,147.569 H 228.835 V 0 H 0 Z"/></clipPath><clipPath id="clipPath194"><path transform="translate(-181.95 -44.389)" d="M 0,147.569 H 228.835 V 0 H 0 Z"/></clipPath><clipPath id="clipPath196"><path transform="translate(-186.42 -97.98)" d="M 0,147.569 H 228.835 V 0 H 0 Z"/></clipPath><clipPath id="clipPath198"><path transform="translate(-195.03 -86.703)" d="M 0,147.569 H 228.835 V 0 H 0 Z"/></clipPath><clipPath id="clipPath200"><path transform="translate(-177.42 -64.93)" d="M 0,147.569 H 228.835 V 0 H 0 Z"/></clipPath><clipPath id="clipPath202"><path transform="translate(-169.16 -71.231)" d="M 0,147.569 H 228.835 V 0 H 0 Z"/></clipPath><clipPath id="clipPath204"><path transform="translate(-169.96 -68.025)" d="M 0,147.569 H 228.835 V 0 H 0 Z"/></clipPath><clipPath id="clipPath206"><path transform="translate(-173.01 -51.355)" d="M 0,147.569 H 228.835 V 0 H 0 Z"/></clipPath><clipPath id="clipPath208"><path transform="translate(-173.26 -29.191)" d="M 0,147.569 H 228.835 V 0 H 0 Z"/></clipPath><clipPath id="clipPath210"><path transform="translate(-177.92 -29.453)" d="M 0,147.569 H 228.835 V 0 H 0 Z"/></clipPath><clipPath id="clipPath212"><path transform="translate(-180.74 -32.766)" d="M 0,147.569 H 228.835 V 0 H 0 Z"/></clipPath><clipPath id="clipPath214"><path transform="translate(-173.01 -24.962)" d="M 0,147.569 H 228.835 V 0 H 0 Z"/></clipPath><clipPath id="clipPath216"><path transform="translate(-170.54 -31.86)" d="M 0,147.569 H 228.835 V 0 H 0 Z"/></clipPath><clipPath id="clipPath218"><path transform="translate(-162.24 -36.253)" d="M 0,147.569 H 228.835 V 0 H 0 Z"/></clipPath><clipPath id="clipPath220"><path transform="translate(-163.44 -32.766)" d="M 0,147.569 H 228.835 V 0 H 0 Z"/></clipPath><clipPath id="clipPath222"><path transform="translate(-166.56 -74.817)" d="M 0,147.569 H 228.835 V 0 H 0 Z"/></clipPath><clipPath id="clipPath224"><path transform="translate(-155.44 -78.808)" d="M 0,147.569 H 228.835 V 0 H 0 Z"/></clipPath><clipPath id="clipPath226"><path transform="translate(-155.75 -73.142)" d="M 0,147.569 H 228.835 V 0 H 0 Z"/></clipPath><clipPath id="clipPath228"><path transform="translate(-162.24 -65.628)" d="M 0,147.569 H 228.835 V 0 H 0 Z"/></clipPath><clipPath id="clipPath230"><path transform="translate(-160.71 -60.967)" d="M 0,147.569 H 228.835 V 0 H 0 Z"/></clipPath><clipPath id="clipPath232"><path transform="translate(-167.17 -60.967)" d="M 0,147.569 H 228.835 V 0 H 0 Z"/></clipPath><clipPath id="clipPath234"><path transform="translate(-165.97 -57.39)" d="M 0,147.569 H 228.835 V 0 H 0 Z"/></clipPath><clipPath id="clipPath236"><path transform="translate(-158.34 -65.628)" d="M 0,147.569 H 228.835 V 0 H 0 Z"/></clipPath><clipPath id="clipPath238"><path transform="translate(-155.15 -85.606)" d="M 0,147.569 H 228.835 V 0 H 0 Z"/></clipPath><clipPath id="clipPath240"><path transform="translate(-149.03 -82.624)" d="M 0,147.569 H 228.835 V 0 H 0 Z"/></clipPath><clipPath id="clipPath242"><path transform="translate(-148.26 -101)" d="M 0,147.569 H 228.835 V 0 H 0 Z"/></clipPath><clipPath id="clipPath244"><path transform="translate(-148.26 -96.898)" d="M 0,147.569 H 228.835 V 0 H 0 Z"/></clipPath><clipPath id="clipPath246"><path transform="translate(-150.98 -98.423)" d="M 0,147.569 H 228.835 V 0 H 0 Z"/></clipPath><clipPath id="clipPath248"><path transform="translate(-135 -99.859)" d="M 0,147.569 H 228.835 V 0 H 0 Z"/></clipPath><clipPath id="clipPath250"><path transform="translate(-121.58 -92.833)" d="M 0,147.569 H 228.835 V 0 H 0 Z"/></clipPath><clipPath id="clipPath252"><path transform="translate(-132.83 -82.97)" d="M 0,147.569 H 228.835 V 0 H 0 Z"/></clipPath><clipPath id="clipPath254"><path transform="translate(-121.31 -96.455)" d="M 0,147.569 H 228.835 V 0 H 0 Z"/></clipPath><clipPath id="clipPath256"><path transform="translate(-143.53 -103.86)" d="M 0,147.569 H 228.835 V 0 H 0 Z"/></clipPath><clipPath id="clipPath258"><path transform="translate(-173.97 -45.915)" d="M 0,147.569 H 228.835 V 0 H 0 Z"/></clipPath><clipPath id="clipPath260"><path transform="translate(-197.86 -81.645)" d="M 0,147.569 H 228.835 V 0 H 0 Z"/></clipPath><clipPath id="clipPath262"><path transform="translate(-168.83 -27.154)" d="M 0,147.569 H 228.835 V 0 H 0 Z"/></clipPath><clipPath id="clipPath264"><path transform="translate(-145.02 -109.69)" d="M 0,147.569 H 228.835 V 0 H 0 Z"/></clipPath><clipPath id="clipPath266"><path transform="translate(-196.31 -77.319)" d="M 0,147.569 H 228.835 V 0 H 0 Z"/></clipPath><clipPath id="clipPath268"><path transform="translate(-170.75 -97.617)" d="M 0,147.569 H 228.835 V 0 H 0 Z"/></clipPath><clipPath id="clipPath270"><path transform="translate(-172.91 -81.465)" d="M 0,147.569 H 228.835 V 0 H 0 Z"/></clipPath><clipPath id="clipPath272"><path transform="translate(-169.72 -42.118)" d="M 0,147.569 H 228.835 V 0 H 0 Z"/></clipPath><clipPath id="clipPath274"><path transform="translate(-179.51 -56.186)" d="M 0,147.569 H 228.835 V 0 H 0 Z"/></clipPath><clipPath id="clipPath276"><path transform="translate(-140.22 -96.67)" d="M 0,147.569 H 228.835 V 0 H 0 Z"/></clipPath><clipPath id="clipPath278"><path transform="translate(-139.37 -104.33)" d="M 0,147.569 H 228.835 V 0 H 0 Z"/></clipPath><clipPath id="clipPath280"><path transform="translate(-175.74 -70.475)" d="M 0,147.569 H 228.835 V 0 H 0 Z"/></clipPath><clipPath id="clipPath282"><path transform="translate(-190.46 -90.36)" d="M 0,147.569 H 228.835 V 0 H 0 Z"/></clipPath><clipPath id="clipPath284"><path transform="translate(-160.43 -82.212)" d="M 0,147.569 H 228.835 V 0 H 0 Z"/></clipPath></defs><g transform="translate(-168.28 -62.971)"><g transform="matrix(.26458 0 0 .26458 128.97 56.947)"><path transform="matrix(1.3333 0 0 -1.3333 202.86 32.831)" d="m0 0c1.154 0.66 1.03 1.525 0.536 2.02-0.495 0.495-1.02 0.704-0.257 1.62 0.348 0.417-1.021 1.719-2.505 0.647s-1.649 0.536-4.123-0.329c-2.473-0.866-1.525 0.494-4.411-0.33-2.886-0.825-2.638-1.525-4.205-1.484-1.566 0.041-1.648-1.443-3.834-1.072-2.184 0.371-1.978 0.617-3.05 1.38s-0.784-2.658-2.061-3.359c-1.278-0.701-2.556-1.361-3.34-3.339-0.783-1.979 0.165-3.051-1.112-4.082-1.279-1.03-1.403-1.814-2.969-2.184-1.566-0.371-1.113-2.144-2.185-2.391-1.072-0.248-0.948-2.35-1.649-3.01-0.7-0.659-1.36-1.732-1.773-3.092-0.412-1.36-0.907-1.154 0-3.009 0.908-1.855-0.536-0.412 0.331-2.35 0.865-1.938 0.09-4.122-0.841-5.153-0.932-1.031-0.149-1.237 0.304-2.185 0.454-0.948-0.659-1.896 1.031-2.886 1.69-0.989 1.443-1.484 2.35-2.267s1.196-1.567 1.526-2.803c0.329-1.237 1.483-0.948 3.174-2.391 1.69-1.443 2.761-2.804 4.246-2.845 1.484-0.041 1.278 1.525 4.123 1.319 2.843-0.206 1.689-1.071 4.122-0.453 2.432 0.618 3.052 1.922 5.441 2.02 1.61 0.066 2.988 0.653 4.246-1.938 0.701-1.443 4.123 0.742 5.484-1.566 1.36-2.309 0.288-4.164-0.33-5.689-0.619-1.526 0.308-2.556 2.627-4.824 2.32-2.267 1.496-3.38 2.443-4.947 0.948-1.567 0.825-1.732 0.289-2.473-0.536-0.742 1.525-1.36 0.824-4.164-0.7-2.804-1.694-0.184-2.349-4.988-0.372-2.721-0.908-3.174 0.907-5.69 1.813-2.514 2.596-3.297 2.514-4.699-0.083-1.401 0.66-3.628 0.619-4.988s0.495-2.803 1.855-4.164 0.906-2.597 1.814-3.792c0.907-1.195 1.443-2.103 0.907-2.927-0.536-0.825-0.094-1.896 1.066-2.763 1.159-0.865 0.995-0.907 2.397 0 1.401 0.908 3.875 0.495 5.194 0.371s2.515 0.331 4.122 1.608c1.608 1.278 2.721 2.226 3.793 3.876 1.072 1.648 1.113 2.844 2.391 3.298 1.278 0.453 1.484 3.298 0.99 3.834-0.495 0.535 0.041 1.607 2.391 2.308 2.349 0.7 1.113 4.452 0.288 6.06s1.031 1.937 2.185 3.092c1.154 1.154 1.36 1.649 3.174 2.308 1.814 0.66 2.804 1.897 2.639 4.123s-0.495 3.092-0.288 4.122c0.206 1.031-0.62 1.402-1.155 2.433-0.536 1.03-0.536 2.103-0.289 3.092s-0.948 0.989-0.742 2.225c0.206 1.238 1.566 3.958 3.175 5.236 1.607 1.279 2.762 4.082 5.523 5.525 2.763 1.442 5.319 5.812 6.762 8.533 1.442 2.721 1.236 3.587 1.318 4.865 0.083 1.277-1.483-0.495-3.38-0.619-1.896-0.124-4.287-1.484-5.771-1.154s-1.228 0.525-2.103 1.567c-0.635 0.756 0.695 0.778-0.453 2.349-0.784 1.072-1.567 2.02-3.133 2.556-1.567 0.536-1.546 1.688-1.649 2.845-0.165 1.855-1.608 1.649-2.02 2.679-0.413 1.031-0.743 2.433-0.866 4.205-0.124 1.773-1.402 1.278-1.896 2.556-0.495 1.278-1.072 3.875-2.062 4.782-0.989 0.907-2.333 4.633-1.799 5.12 0.211 0.192 0.892-1.389 2.17-2.852 0.317-0.363 0.66 1.401 0.66 2.72 0 1.32-0.578 1.855-1.031 2.557-0.453 0.7-1.331-0.389-3.545 0.164-0.989 0.248-2.061-1.236-4.082-0.618-2.019 0.618-3.256 1.072-4.163 1.031-0.907-0.042-0.041 0.7-1.608 0.7s-0.783 0.907-2.144 1.278c-1.36 0.371-3.545-0.041-3.628-1.319-0.082-1.278 0.743-2.185-0.7-2.679-1.443-0.495-1.401 0.412-2.226 0.948s-2.638-0.165-3.298 0.907c-0.659 1.071-0.206 1.237-1.526 1.69-1.319 0.453-1.36 0.536-2.72 0.412-1.361-0.123-1.196 0.99-2.268 1.237-1.071 0.247-1.69 1.113-0.412 1.649" clip-path="url(#clipPath2)" fill="#f4e8c3"/><path transform="matrix(1.3333 0 0 -1.3333 201.47 22.768)" d="m0 0c-0.838 0-1.665-0.231-2.419-0.672-0.377 0.098-0.882 0.196-1.499 0.196-0.743 0-1.504-0.139-2.326-0.427-0.172-0.06-0.293-0.096-0.373-0.117-0.311 0.091-0.826 0.225-1.524 0.225-0.682 0-1.431-0.123-2.356-0.388-1.696-0.484-2.561-0.963-3.132-1.279-0.062-0.034-0.119-0.067-0.174-0.097l-0.042 1e-3 -0.138 2e-3c-1.517 0-2.502-0.667-3.032-1.026-0.047-0.032-0.105-0.071-0.153-0.102-0.028 3e-3 -0.064 7e-3 -0.109 0.015-0.655 0.111-0.918 0.185-1.012 0.216-0.043 0.034-0.085 0.071-0.132 0.109-0.173 0.143-0.408 0.337-0.732 0.568-0.742 0.527-1.46 0.638-1.933 0.638-2.548 0-3.204-2.517-3.45-3.465-0.046-0.173-0.11-0.421-0.171-0.616-1.378-0.769-3.101-1.889-4.145-4.527-0.529-1.339-0.549-2.418-0.563-3.131-1e-3 -0.014-1e-3 -0.029-1e-3 -0.043-0.418-0.366-0.729-0.696-0.968-0.951-0.127-0.133-0.299-0.317-0.356-0.357-1e-3 0-0.055-0.027-0.201-0.062-2.005-0.475-2.83-1.955-3.193-2.782-1.438-0.822-1.892-2.427-2.132-3.273-0.027-0.099-0.063-0.227-0.095-0.332-0.978-1.031-1.772-2.452-2.255-4.049-0.052-0.17-0.105-0.287-0.177-0.449-0.645-1.438-0.621-2.511 0.146-4.216-0.126-0.777 0.036-1.673 0.486-2.681 0.332-0.743-0.054-1.751-0.354-2.083-1.003-1.109-1.868-2.878-0.352-5.037-0.084-0.93-0.079-2.971 2.361-4.399 0.524-0.306 0.584-0.392 0.764-0.649 0.222-0.316 0.558-0.793 1.164-1.316 0.245-0.212 0.347-0.299 0.635-1.382 0.526-1.974 2.024-2.682 2.828-3.062 0.429-0.204 0.801-0.379 1.249-0.761 0.347-0.298 0.668-0.592 0.97-0.869 1.326-1.216 2.829-2.595 5.044-2.656l0.136-2e-3c1.568 0 2.512 0.748 3.019 1.149 0.076 0.06 0.179 0.143 0.217 0.164 6e-3 0 0.106 0.026 0.336 0.026 0.09 0 0.186-4e-3 0.289-0.011 0.74-0.054 0.917-0.137 1.087-0.217 0.347-0.162 0.991-0.464 1.953-0.464 0.547 0 1.143 0.092 1.989 0.308 1.423 0.361 2.411 0.914 3.133 1.317 0.747 0.417 1.055 0.59 1.723 0.617 0.283 0.012 0.56 0.035 0.831 0.06 0.182 0.016 0.356 0.032 0.494 0.038 0.06-0.088 0.144-0.226 0.246-0.435 0.387-0.8 1.396-2.141 3.789-2.141 0.385 0 0.751 0.029 1.103 0.059 0.292 0.023 0.569 0.046 0.798 0.046h0.039c0.264-0.603 0.113-1.102-0.425-2.36-0.079-0.186-0.157-0.369-0.229-0.547-1.372-3.384 0.991-5.695 3.275-7.928 0.856-0.836 0.93-1.186 1.079-1.887 0.137-0.638 0.324-1.513 0.919-2.499 8e-3 -0.011 0.015-0.023 0.022-0.035-0.359-0.865-0.406-2.046 0.58-3.501 0.283-0.418 0.306-0.452 0.185-0.936-7e-3 -0.028-0.013-0.053-0.019-0.076-1.379-0.964-1.997-2.343-2.39-5.218-0.057-0.426-0.12-0.791-0.176-1.116-0.414-2.425-0.391-3.869 1.595-6.624 0.289-0.4 0.553-0.758 0.792-1.083 0.525-0.713 1.122-1.523 1.195-1.774-0.069-1.088 0.146-2.221 0.353-3.317 0.119-0.631 0.268-1.417 0.257-1.762-0.048-1.583 0.379-3.954 2.687-6.262 0.207-0.208 0.243-0.307 0.4-0.906 0.177-0.685 0.421-1.621 1.159-2.595 0.156-0.206 0.272-0.367 0.359-0.492-0.841-2.202 0.443-4.462 2.179-5.758l0.231-0.174c0.587-0.445 1.393-1.055 2.589-1.055 1.098 0 1.863 0.496 2.672 1.021l0.153 0.1c4e-3 0 0.263 0.116 1.026 0.116 0.595 0 1.233-0.07 1.797-0.131 0.202-0.022 0.389-0.042 0.56-0.058 0.228-0.022 0.453-0.032 0.677-0.032 2.355 0 4.167 1.2 5.482 2.245 1.756 1.396 3.1 2.54 4.409 4.552 0.458 0.705 0.755 1.32 0.994 1.813 0.07 0.145 0.159 0.328 0.228 0.46 1.291 0.565 2.223 1.789 2.641 3.48 0.103 0.418 0.302 1.405 0.199 2.47 0.043 0.014 0.089 0.027 0.136 0.042 1.356 0.404 2.405 1.335 2.954 2.621 0.92 2.154 0.208 4.734-0.422 6.309 0.36 0.25 0.755 0.551 1.141 0.936 0.228 0.23 0.424 0.435 0.601 0.622 0.615 0.647 0.678 0.714 1.533 1.025 3.154 1.147 4.753 3.635 4.504 7.007-0.069 0.938-0.164 1.646-0.24 2.214-0.073 0.542-0.13 0.97-0.096 1.141 0.393 1.966-0.623 3.254-1.111 3.873-0.139 0.176-0.25 0.315-0.309 0.43-0.102 0.196-0.201 0.498-0.052 1.088 0.341 1.367-0.105 2.382-0.517 3 0.355 0.87 1.153 2.284 1.958 2.924 0.882 0.701 1.569 1.59 2.233 2.45 0.864 1.118 1.68 2.175 2.839 2.78 2.607 1.362 5.209 4.542 7.957 9.722 1.425 2.688 1.576 4.054 1.626 5.559 4e-3 0.149 9e-3 0.299 0.019 0.457 0.081 1.257-0.413 2.066-0.843 2.524-0.583 0.623-1.382 0.965-2.249 0.966h-1e-3c-0.864 0-1.55-0.339-2.157-0.637-0.368-0.182-0.872-0.43-1.156-0.449-1.165-0.075-2.302-0.432-3.305-0.746-0.483-0.152-1.109-0.347-1.51-0.422-5e-3 0.922-0.347 1.836-1.029 2.77-0.913 1.248-2.062 2.638-4.202 3.457-8e-3 0.086-0.015 0.175-0.022 0.253l-0.021 0.263c-0.211 2.374-1.647 3.42-2.36 3.892-0.207 0.635-0.428 1.591-0.522 2.939-0.162 2.323-1.508 3.282-2.2 3.717-0.072 0.213-0.151 0.464-0.234 0.725-0.366 1.148-0.764 2.4-1.384 3.456 0.537 0.852 0.898 2.185 0.898 4.23 0 1.992-0.818 3.149-1.306 3.84-0.062 0.087-0.123 0.172-0.181 0.262-0.635 0.981-1.673 1.544-2.847 1.544-0.453 0-0.837-0.081-1.145-0.147-0.251-0.054-0.45-0.096-0.675-0.096-0.178 0-0.366 0.026-0.577 0.079-0.301 0.075-0.612 0.113-0.925 0.113-0.924 0-1.662-0.324-2.201-0.561-0.266-0.117-0.541-0.238-0.668-0.238-0.037 0-0.086 0.01-0.145 0.028-0.338 0.103-0.652 0.201-0.947 0.294-1.191 0.372-2.137 0.668-3.025 0.796-0.524 0.4-1.177 0.643-1.957 0.73-0.418 0.449-1.064 0.939-2.071 1.213-0.561 0.154-1.168 0.231-1.801 0.231-2.591 0-4.594-1.234-5.219-3.104-0.542 0.13-1.056 0.153-1.469 0.163-0.522 1.1-1.294 1.715-2.712 2.203l-0.352 0.122c-0.792 0.277-1.418 0.496-2.425 0.496 0.087 0.262 0.134 0.498 0.16 0.691 0.121 0.908-0.084 1.816-0.571 2.592 0.103 0.627 0.013 1.286-0.275 1.902-0.659 1.406-2.229 2.35-3.908 2.35m0-2.846c0.934 0 1.574-0.76 1.324-1.061-0.763-0.916-0.238-1.125 0.257-1.62 0.494-0.494 0.618-1.36-0.536-2.02-1.278-0.536-0.659-1.402 0.412-1.649 1.016-0.234 0.921-1.246 2.066-1.246 0.063 0 0.13 3e-3 0.202 9e-3 0.368 0.034 0.639 0.052 0.866 0.052 0.61 0 0.892-0.133 1.854-0.464 1.32-0.453 0.867-0.618 1.526-1.69 0.66-1.072 2.473-0.371 3.298-0.907 0.658-0.428 0.764-1.091 1.513-1.091 0.19 0 0.421 0.043 0.713 0.143 1.443 0.494 0.618 1.401 0.7 2.68 0.064 0.979 1.361 1.449 2.576 1.449 0.371 0 0.734-0.044 1.052-0.131 1.361-0.371 0.577-1.277 2.144-1.277 1.524 0 0.746-0.703 1.538-0.703 0.022 0 0.046 0 0.07 2e-3 0.038 1e-3 0.077 2e-3 0.116 2e-3 0.897 0 2.113-0.441 4.048-1.033 0.353-0.108 0.678-0.152 0.978-0.152 1.28 0 2.116 0.799 2.869 0.799 0.079 0 0.156-9e-3 0.234-0.029 0.483-0.12 0.903-0.163 1.268-0.163 0.872 0 1.435 0.242 1.819 0.242 0.193 0 0.34-0.061 0.458-0.243 0.453-0.701 1.031-1.237 1.031-2.556 0-1.201-0.285-2.769-0.574-2.769-0.028 0-0.057 0.015-0.086 0.048-1.207 1.381-1.881 2.868-2.13 2.868-0.014 0-0.027-5e-3 -0.04-0.016-0.534-0.487 0.81-4.212 1.799-5.12 0.989-0.906 1.567-3.504 2.062-4.781 0.494-1.279 1.772-0.784 1.896-2.557 0.123-1.772 0.453-3.174 0.865-4.205 0.413-1.03 1.856-0.824 2.021-2.679 0.103-1.157 0.082-2.309 1.648-2.845 1.567-0.536 2.35-1.484 3.134-2.556 1.148-1.571-0.182-1.593 0.453-2.349 0.875-1.042 0.619-1.237 2.103-1.567 0.159-0.035 0.33-0.052 0.509-0.052 1.483 0 3.57 1.096 5.262 1.207 1.399 0.09 2.618 1.079 3.128 1.079 0.182 0 0.275-0.126 0.252-0.461-0.082-1.278 0.124-2.144-1.318-4.865-1.443-2.721-3.999-7.09-6.762-8.533-2.762-1.443-3.916-4.246-5.523-5.525-1.609-1.277-2.969-3.998-3.175-5.236-0.206-1.236 0.989-1.236 0.742-2.225s-0.247-2.062 0.289-3.092c0.535-1.031 1.361-1.402 1.154-2.433-0.207-1.03 0.124-1.896 0.289-4.122s-0.825-3.462-2.639-4.123c-1.814-0.659-2.02-1.154-3.174-2.308-1.154-1.155-3.01-1.484-2.185-3.092 0.825-1.607 2.061-5.359-0.289-6.06-2.349-0.701-2.885-1.773-2.39-2.308 0.494-0.536 0.288-3.381-0.99-3.834-1.278-0.454-1.319-1.65-2.391-3.298-1.072-1.649-2.185-2.598-3.793-3.876-1.439-1.144-2.548-1.627-3.711-1.627-0.136 0-0.273 7e-3 -0.411 0.02-0.673 0.063-1.646 0.201-2.623 0.201-0.94 0-1.885-0.128-2.571-0.573-0.693-0.448-1.003-0.665-1.28-0.665-0.283 0-0.531 0.228-1.117 0.665-1.16 0.867-1.602 1.938-1.066 2.763 0.536 0.824 0 1.732-0.908 2.927-0.907 1.195-0.453 2.432-1.813 3.792-1.36 1.361-1.897 2.804-1.856 4.164 0.042 1.36-0.701 3.587-0.618 4.988 0.082 1.402-0.701 2.185-2.514 4.7-1.815 2.515-1.279 2.968-0.908 5.689 0.656 4.804 1.65 2.185 2.35 4.988 0.701 2.804-1.36 3.422-0.824 4.164s0.659 0.907-0.289 2.473c-0.947 1.567-0.123 2.68-2.443 4.947-2.319 2.268-3.246 3.299-2.628 4.824 0.619 1.525 1.691 3.38 0.331 5.689-0.552 0.935-1.443 1.133-2.353 1.133-0.664 0-1.339-0.105-1.901-0.105-0.568 0-1.02 0.107-1.23 0.538-0.837 1.723-1.726 2.04-2.702 2.04-0.491 0-1.005-0.08-1.544-0.102-2.389-0.098-3.009-1.402-5.441-2.02-0.621-0.158-1.009-0.219-1.288-0.219-0.816 0-0.717 0.519-2.834 0.672-0.177 0.013-0.34 0.019-0.495 0.019-2.298 0-2.238-1.339-3.572-1.339-0.018 0-0.037 1e-3 -0.056 1e-3 -1.485 0.042-2.556 1.402-4.247 2.845-1.69 1.443-2.844 1.154-3.173 2.391-0.33 1.236-0.62 2.02-1.526 2.803-0.907 0.783-0.66 1.278-2.35 2.267-1.69 0.99-0.578 1.938-1.031 2.886s-1.236 1.154-0.304 2.185c0.931 1.031 1.706 3.215 0.84 5.153s0.578 0.495-0.33 2.35c-0.907 1.855-0.412 1.649 0 3.009 0.413 1.361 1.073 2.433 1.773 3.092 0.701 0.66 0.577 2.762 1.649 3.01 1.072 0.247 0.618 2.02 2.185 2.391 1.566 0.371 1.69 1.154 2.969 2.184 1.277 1.031 0.329 2.103 1.112 4.082 0.784 1.979 2.061 2.638 3.34 3.339 1.151 0.631 1.031 3.47 1.779 3.47 0.082 0 0.176-0.035 0.282-0.111 1.072-0.762 0.866-1.009 3.05-1.38 0.243-0.042 0.461-0.06 0.656-0.06 1.541 0 1.779 1.133 3.115 1.133 0.02 0 0.042-1e-3 0.063-1e-3 0.044-1e-3 0.087-2e-3 0.128-2e-3 1.428 0 1.272 0.685 4.077 1.486 0.733 0.209 1.217 0.277 1.574 0.277 0.681 0 0.896-0.249 1.464-0.249 0.309 0 0.723 0.074 1.373 0.302 0.57 0.199 1.017 0.267 1.386 0.267 0.801 0 1.233-0.321 1.751-0.321 0.28 0 0.585 0.094 0.986 0.383 0.414 0.3 0.82 0.414 1.181 0.414" clip-path="url(#clipPath4)" fill="#37150e"/><path transform="matrix(1.3333 0 0 -1.3333 274 124.63)" d="m0 0c-0.464 0.784-1.213 2.033-1.392-0.535-0.177-2.569-3.96-3.782-4.851-4.032-0.893-0.249-1.178-0.928-1.57-1.712-0.393-0.785 0.892-2.212 0.571-3.711-0.321-1.498-1.463-1.82-1.571-2.747-0.106-0.928 0.179-1.927 0.572-2.641 0.392-0.713-0.25-2.033 1.355-2.747 1.606-0.713 1.705-0.555 2.855 0.321 1.498 1.142 0.464 1.784 1.89 5.174 1.428 3.389 0.536 3.889 1.677 5.529 1.142 1.642-0.138 1.677 0.215 3.247 0.17 0.761 0.27-0.415 0.927-0.392 0.714 0.024 0.356 1.261 0.142 2.081-0.215 0.82-0.533 1.701-0.82 2.165" clip-path="url(#clipPath6)" fill="#f4e8c3"/><path transform="matrix(1.3333 0 0 -1.3333 272.82 119.5)" d="m0 0c-1.142 0-3.096-0.544-3.349-4.187-0.134-0.311-1.264-1.064-2.78-1.489-2.057-0.576-2.823-2.122-3.281-3.045l-0.068-0.135c-0.731-1.463-0.218-2.873 0.087-3.716 0.082-0.226 0.203-0.556 0.231-0.721-0.025-0.048-0.086-0.124-0.277-0.337-0.437-0.49-1.168-1.311-1.321-2.631-0.149-1.295 0.114-2.728 0.725-3.991 0.054-0.777 0.215-3.142 2.873-4.323 0.823-0.366 1.64-0.695 2.584-0.695 1.384 0 2.291 0.695 3.019 1.252l0.132 0.101c1.743 1.328 1.946 2.758 2.094 3.803 0.087 0.619 0.186 1.321 0.695 2.53 0.874 2.075 1.04 3.349 1.15 4.191 0.075 0.58 0.075 0.58 0.241 0.818 0.642 0.924 0.912 1.743 0.974 2.463 0.156 0.139 0.297 0.295 0.424 0.466 1.069 1.434 0.624 3.125 0.33 4.246l-0.027 0.103c-0.145 0.557-0.544 1.944-1.136 2.915-0.465 0.787-1.424 2.382-3.32 2.382m0-2.846c0.285 0 0.627-0.572 0.882-1.004 0.287-0.463 0.605-1.344 0.82-2.165 0.214-0.821 0.571-2.056-0.142-2.081h-0.019c-0.482 0-0.657 0.65-0.787 0.65-0.042 0-0.08-0.071-0.122-0.257-0.352-1.57 0.928-1.606-0.214-3.247s-0.249-2.141-1.677-5.529c-1.427-3.39-0.392-4.033-1.89-5.174-0.662-0.504-0.975-0.77-1.427-0.77-0.335 0-0.745 0.146-1.428 0.448-1.605 0.714-0.963 2.035-1.355 2.747-0.393 0.714-0.678 1.713-0.572 2.641 0.108 0.928 1.249 1.249 1.571 2.747 0.321 1.499-0.964 2.926-0.572 3.711 0.393 0.784 0.678 1.463 1.571 1.712 0.891 0.25 4.674 1.463 4.851 4.032 0.081 1.156 0.277 1.539 0.51 1.539" clip-path="url(#clipPath8)" fill="#37150e"/><path transform="matrix(1.3333 0 0 -1.3333 187.96 43.954)" d="m0 0c-6.944 0-12.594-5.649-12.594-12.593 0-6.945 5.65-12.594 12.594-12.594s12.594 5.649 12.594 12.594c0 6.944-5.65 12.593-12.594 12.593m0-27.085c-7.99 0-14.491 6.501-14.491 14.492 0 7.99 6.501 14.49 14.491 14.49s14.491-6.5 14.491-14.49c0-7.991-6.501-14.492-14.491-14.492" clip-path="url(#clipPath10)" fill="#e64424"/><path transform="matrix(1.3333 0 0 -1.3333 234.1 116.18)" d="m0 0c-7.99 0-14.492 6.501-14.492 14.491 0 0.656 0.044 1.312 0.13 1.949 0.07 0.518 0.546 0.886 1.067 0.812 0.52-0.069 0.884-0.547 0.814-1.067-0.076-0.553-0.114-1.122-0.114-1.694 0-6.944 5.651-12.594 12.595-12.594 6.943 0 12.594 5.65 12.594 12.594 0 4.639-2.541 8.891-6.629 11.094-2.568 1.384-5.652 1.827-8.505 1.245-0.512-0.108-1.015 0.226-1.119 0.739-0.106 0.513 0.226 1.014 0.739 1.119 3.285 0.672 6.828 0.16 9.785-1.432 4.703-2.535 7.626-7.426 7.626-12.765 0-7.99-6.501-14.491-14.491-14.491" clip-path="url(#clipPath12)" fill="#e64424"/><path transform="matrix(1.3333 0 0 -1.3333 216.04 60.745)" d="m0 0c0-2.701-2.19-4.891-4.892-4.891-2.701 0-4.891 2.19-4.891 4.891 0 2.702 2.19 4.892 4.891 4.892 2.702 0 4.892-2.19 4.892-4.892" clip-path="url(#clipPath14)" fill="#f4e8c3"/><path transform="matrix(1.3333 0 0 -1.3333 209.52 55.488)" d="m0 0c-2.174 0-3.942-1.769-3.942-3.942 0-2.175 1.768-3.943 3.942-3.943s3.942 1.768 3.942 3.943c0 2.173-1.768 3.942-3.942 3.942m0-9.783c-3.22 0-5.84 2.62-5.84 5.841 0 3.219 2.62 5.839 5.84 5.839s5.84-2.62 5.84-5.839c0-3.221-2.62-5.841-5.84-5.841" clip-path="url(#clipPath16)" fill="#e64424"/><path transform="matrix(1.3333 0 0 -1.3333 233.35 46.424)" d="m0 0c-2.885 0-5.231-2.346-5.231-5.23 0-2.885 2.346-5.231 5.231-5.231 2.884 0 5.229 2.346 5.229 5.231 0 2.884-2.345 5.23-5.229 5.23m0-12.358c-3.931 0-7.129 3.197-7.129 7.128 0 3.93 3.198 7.127 7.129 7.127 3.93 0 7.127-3.197 7.127-7.127 0-3.931-3.197-7.128-7.127-7.128" clip-path="url(#clipPath18)" fill="#19a08d"/><path transform="matrix(1.3333 0 0 -1.3333 187.96 39.118)" d="m0 0c-8.943 0-16.219-7.276-16.219-16.22s7.276-16.22 16.219-16.22c6.175 0 11.731 3.429 14.504 8.95l0.157 0.313 0.346-0.058c0.348-0.059 0.707-0.086 1.163-0.086 3.915 0 7.101 3.186 7.101 7.101s-3.186 7.1-7.101 7.1c-0.391 0-0.78-0.031-1.16-0.094l-0.345-0.057-0.157 0.313c-2.771 5.525-8.331 8.958-14.508 8.958m0-33.389c-9.466 0-17.168 7.702-17.168 17.169s7.702 17.169 17.168 17.169c6.425 0 12.217-3.508 15.2-9.178 0.32 0.039 0.645 0.058 0.97 0.058 4.438 0 8.049-3.61 8.049-8.049 0-4.438-3.611-8.05-8.049-8.05-0.365 0-0.679 0.017-0.975 0.05-2.983-5.665-8.774-9.169-15.195-9.169" clip-path="url(#clipPath20)" fill="#19a08d"/><path transform="matrix(1.3333 0 0 -1.3333 187.96 57.65)" d="m0 0c0-1.761-1.429-3.189-3.189-3.189-1.762 0-3.19 1.428-3.19 3.189 0 1.762 1.428 3.189 3.19 3.189 1.76 0 3.189-1.427 3.189-3.189" clip-path="url(#clipPath22)" fill="#e64424"/><path transform="matrix(1.3333 0 0 -1.3333 167.41 77.954)" d="m0 0c-1.497 0-2.715-1.218-2.715-2.715s1.218-2.715 2.715-2.715 2.715 1.218 2.715 2.715-1.218 2.715-2.715 2.715m0-6.378c-2.02 0-3.663 1.643-3.663 3.663s1.643 3.664 3.663 3.664 3.663-1.644 3.663-3.664-1.643-3.663-3.663-3.663" clip-path="url(#clipPath24)" fill="#19a08d"/><path transform="matrix(1.3333 0 0 -1.3333 184.86 64.246)" d="m0 0c-1.497 0-2.715-1.218-2.715-2.714 0-1.498 1.218-2.716 2.715-2.716s2.716 1.218 2.716 2.716c0 1.496-1.219 2.714-2.716 2.714m0-6.378c-2.02 0-3.663 1.643-3.663 3.664 0 2.019 1.643 3.663 3.663 3.663 2.021 0 3.664-1.644 3.664-3.663 0-2.021-1.643-3.664-3.664-3.664" clip-path="url(#clipPath26)" fill="#e64424"/><path transform="matrix(1.3333 0 0 -1.3333 236.36 102.68)" d="m0 0c0-1.747-1.415-3.162-3.162-3.162-1.746 0-3.162 1.415-3.162 3.162s1.416 3.162 3.162 3.162c1.747 0 3.162-1.415 3.162-3.162" clip-path="url(#clipPath28)" fill="#19a08d"/><path transform="matrix(1.3333 0 0 -1.3333 227.48 117.51)" d="m0 0c-1.497 0-2.715-1.217-2.715-2.715 0-1.497 1.218-2.715 2.715-2.715 1.498 0 2.715 1.218 2.715 2.715 0 1.498-1.217 2.715-2.715 2.715m0-6.379c-2.021 0-3.664 1.644-3.664 3.664 0 2.021 1.643 3.664 3.664 3.664s3.664-1.643 3.664-3.664c0-2.02-1.643-3.664-3.664-3.664" clip-path="url(#clipPath30)" fill="#19a08d"/><path transform="matrix(1.3333 0 0 -1.3333 242.03 96.559)" d="m0 0c-1.497 0-2.715-1.218-2.715-2.715s1.218-2.715 2.715-2.715 2.715 1.218 2.715 2.715-1.218 2.715-2.715 2.715m0-6.379c-2.021 0-3.664 1.644-3.664 3.664s1.643 3.664 3.664 3.664 3.664-1.644 3.664-3.664-1.643-3.664-3.664-3.664" clip-path="url(#clipPath32)" fill="#e64424"/><path transform="matrix(1.3333 0 0 -1.3333 241.48 121.84)" d="m0 0c0-1.761-1.429-3.189-3.189-3.189-1.762 0-3.19 1.428-3.19 3.189 0 1.762 1.428 3.189 3.19 3.189 1.76 0 3.189-1.427 3.189-3.189" clip-path="url(#clipPath34)" fill="#e64424"/><path transform="matrix(1.3333 0 0 -1.3333 240.04 86.459)" d="m0 0c-1.497 0-2.716-1.218-2.716-2.715s1.219-2.715 2.716-2.715 2.715 1.218 2.715 2.715-1.218 2.715-2.715 2.715m0-6.379c-2.021 0-3.664 1.644-3.664 3.664s1.643 3.664 3.664 3.664c2.02 0 3.663-1.644 3.663-3.664s-1.643-3.664-3.663-3.664" clip-path="url(#clipPath36)" fill="#19a08d"/><path transform="matrix(1.3333 0 0 -1.3333 232.68 88.139)" d="m0 0c0-1.762-1.428-3.189-3.189-3.189s-3.19 1.427-3.19 3.189c0 1.761 1.429 3.189 3.19 3.189s3.189-1.428 3.189-3.189" clip-path="url(#clipPath38)" fill="#e64424"/><path transform="matrix(1.3333 0 0 -1.3333 229.8 66.602)" d="m0 0c0-1.761-1.428-3.189-3.189-3.189-1.762 0-3.19 1.428-3.19 3.189s1.428 3.189 3.19 3.189c1.761 0 3.189-1.428 3.189-3.189" clip-path="url(#clipPath40)" fill="#e64424"/><path transform="matrix(1.3333 0 0 -1.3333 211.79 83.523)" d="m0 0c-1.497 0-2.714-1.218-2.714-2.714 0-1.498 1.217-2.716 2.714-2.716 1.498 0 2.716 1.218 2.716 2.716 0 1.496-1.218 2.714-2.716 2.714m0-6.378c-2.02 0-3.663 1.643-3.663 3.664 0 2.019 1.643 3.663 3.663 3.663 2.021 0 3.665-1.644 3.665-3.663 0-2.021-1.644-3.664-3.665-3.664" clip-path="url(#clipPath42)" fill="#19a08d"/><path transform="matrix(1.3333 0 0 -1.3333 259.65 90.047)" d="m0 0c-1.497 0-2.715-1.218-2.715-2.715s1.218-2.715 2.715-2.715 2.715 1.218 2.715 2.715-1.218 2.715-2.715 2.715m0-6.379c-2.021 0-3.664 1.644-3.664 3.664s1.643 3.664 3.664 3.664 3.664-1.644 3.664-3.664-1.643-3.664-3.664-3.664" clip-path="url(#clipPath44)" fill="#e64424"/><path transform="matrix(1.3333 0 0 -1.3333 228.43 140.6)" d="m0 0c0-1.762-1.428-3.189-3.189-3.189s-3.19 1.427-3.19 3.189 1.429 3.189 3.19 3.189 3.189-1.427 3.189-3.189" clip-path="url(#clipPath46)" fill="#19a08d"/><path transform="matrix(1.3333 0 0 -1.3333 232.06 144.8)" d="m0 0c-1.497 0-2.715-1.218-2.715-2.715s1.218-2.716 2.715-2.716 2.715 1.219 2.715 2.716-1.218 2.715-2.715 2.715m0-6.379c-2.021 0-3.664 1.644-3.664 3.664s1.643 3.663 3.664 3.663 3.664-1.643 3.664-3.663-1.643-3.664-3.664-3.664" clip-path="url(#clipPath48)" fill="#e64424"/><path transform="matrix(1.3333 0 0 -1.3333 256.04 76.279)" d="m0 0c0-1.747-1.416-3.163-3.162-3.163s-3.162 1.416-3.162 3.163 1.416 3.163 3.162 3.163 3.162-1.416 3.162-3.163" clip-path="url(#clipPath50)" fill="#19a08d"/><path transform="matrix(1.3333 0 0 -1.3333 191.24 46.879)" d="m0 0c-1.497 0-2.716-1.218-2.716-2.715s1.219-2.715 2.716-2.715 2.715 1.218 2.715 2.715-1.218 2.715-2.715 2.715m0-6.378c-2.021 0-3.664 1.643-3.664 3.663s1.643 3.664 3.664 3.664c2.02 0 3.663-1.644 3.663-3.664s-1.643-3.663-3.663-3.663" clip-path="url(#clipPath52)" fill="#e64424"/><path transform="matrix(1.3333 0 0 -1.3333 182.81 47.781)" d="m0 0c-0.677 0-1.227-0.551-1.227-1.228 0-0.676 0.55-1.227 1.227-1.227s1.228 0.551 1.228 1.227c0 0.677-0.551 1.228-1.228 1.228m0-3.404c-1.2 0-2.176 0.976-2.176 2.176s0.976 2.177 2.176 2.177c1.199 0 2.176-0.977 2.176-2.177s-0.977-2.176-2.176-2.176" clip-path="url(#clipPath54)" fill="#19a08d"/><g fill="#e64424"><path transform="matrix(1.3333 0 0 -1.3333 194 71.137)" d="m0 0c0-0.94-0.762-1.702-1.701-1.702-0.941 0-1.702 0.762-1.702 1.702s0.761 1.702 1.702 1.702c0.939 0 1.701-0.762 1.701-1.702" clip-path="url(#clipPath56)"/><path transform="matrix(1.3333 0 0 -1.3333 169.68 81.574)" d="m0 0c0-0.94-0.763-1.702-1.702-1.702-0.941 0-1.702 0.762-1.702 1.702s0.761 1.702 1.702 1.702c0.939 0 1.702-0.762 1.702-1.702" clip-path="url(#clipPath58)"/><path transform="matrix(1.3333 0 0 -1.3333 242.31 90.079)" d="m0 0c0-0.94-0.763-1.702-1.702-1.702-0.941 0-1.702 0.762-1.702 1.702s0.761 1.702 1.702 1.702c0.939 0 1.702-0.762 1.702-1.702" clip-path="url(#clipPath60)"/><path transform="matrix(1.3333 0 0 -1.3333 229.75 121.13)" d="m0 0c0-0.939-0.762-1.702-1.702-1.702s-1.702 0.763-1.702 1.702 0.762 1.702 1.702 1.702 1.702-0.763 1.702-1.702" clip-path="url(#clipPath62)"/><path transform="matrix(1.3333 0 0 -1.3333 242.03 108.29)" d="m0 0c0-0.94-0.762-1.702-1.702-1.702s-1.701 0.762-1.701 1.702c0 0.939 0.761 1.702 1.701 1.702s1.702-0.763 1.702-1.702" clip-path="url(#clipPath64)"/></g><path transform="matrix(1.3333 0 0 -1.3333 236.84 128.95)" d="m0 0c0-0.94-0.763-1.702-1.702-1.702-0.94 0-1.702 0.762-1.702 1.702 0 0.939 0.762 1.702 1.702 1.702 0.939 0 1.702-0.763 1.702-1.702" clip-path="url(#clipPath66)" fill="#19a08d"/><path transform="matrix(1.3333 0 0 -1.3333 235.43 94.753)" d="m0 0c0-0.932-0.756-1.687-1.687-1.687-0.933 0-1.688 0.755-1.688 1.687s0.755 1.687 1.688 1.687c0.931 0 1.687-0.755 1.687-1.687" clip-path="url(#clipPath68)" fill="#19a08d"/><path transform="matrix(1.3333 0 0 -1.3333 252.47 126.58)" d="m0 0c-0.677 0-1.228-0.551-1.228-1.228s0.551-1.227 1.228-1.227c0.678 0 1.228 0.55 1.228 1.227s-0.55 1.228-1.228 1.228m0-3.404c-1.199 0-2.176 0.976-2.176 2.176s0.977 2.176 2.176 2.176c1.2 0 2.177-0.976 2.177-2.176s-0.977-2.176-2.177-2.176" clip-path="url(#clipPath70)" fill="#e64424"/><path transform="matrix(1.3333 0 0 -1.3333 244.86 144.17)" d="m0 0c0-0.94-0.763-1.702-1.702-1.702-0.94 0-1.702 0.762-1.702 1.702 0 0.939 0.762 1.701 1.702 1.701 0.939 0 1.702-0.762 1.702-1.701" clip-path="url(#clipPath72)" fill="#19a08d"/><g fill="#e64424"><path transform="matrix(1.3333 0 0 -1.3333 266.88 140.95)" d="m0 0c-0.676 0-1.227-0.551-1.227-1.228s0.551-1.227 1.227-1.227c0.678 0 1.228 0.55 1.228 1.227s-0.55 1.228-1.228 1.228m0-3.404c-1.199 0-2.175 0.976-2.175 2.176s0.976 2.176 2.175 2.176c1.2 0 2.177-0.976 2.177-2.176s-0.977-2.176-2.177-2.176" clip-path="url(#clipPath74)"/><path transform="matrix(1.3333 0 0 -1.3333 228.05 95.936)" d="m0 0c0-0.94-0.762-1.702-1.701-1.702-0.941 0-1.702 0.762-1.702 1.702s0.761 1.702 1.702 1.702c0.939 0 1.701-0.762 1.701-1.702" clip-path="url(#clipPath76)"/><path transform="matrix(1.3333 0 0 -1.3333 212.67 95.288)" d="m0 0c0-0.94-0.762-1.702-1.701-1.702-0.941 0-1.702 0.762-1.702 1.702s0.761 1.702 1.702 1.702c0.939 0 1.701-0.762 1.701-1.702" clip-path="url(#clipPath78)"/><path transform="matrix(1.3333 0 0 -1.3333 221.89 89.412)" d="m0 0c0-0.94-0.762-1.702-1.701-1.702-0.941 0-1.702 0.762-1.702 1.702s0.761 1.702 1.702 1.702c0.939 0 1.701-0.762 1.701-1.702" clip-path="url(#clipPath80)"/></g><path transform="matrix(1.3333 0 0 -1.3333 205.27 87.143)" d="m0 0c0-0.94-0.762-1.702-1.702-1.702s-1.701 0.762-1.701 1.702 0.761 1.702 1.701 1.702 1.702-0.762 1.702-1.702" clip-path="url(#clipPath82)" fill="#19a08d"/><g fill="#e64424"><path transform="matrix(1.3333 0 0 -1.3333 237.22 83.557)" d="m0 0c0-0.94-0.763-1.702-1.702-1.702-0.941 0-1.702 0.762-1.702 1.702s0.761 1.702 1.702 1.702c0.939 0 1.702-0.762 1.702-1.702" clip-path="url(#clipPath84)"/><path transform="matrix(1.3333 0 0 -1.3333 226.21 81.288)" d="m0 0c0-0.94-0.763-1.702-1.702-1.702-0.941 0-1.702 0.762-1.702 1.702s0.761 1.702 1.702 1.702c0.939 0 1.702-0.762 1.702-1.702" clip-path="url(#clipPath86)"/><path transform="matrix(1.3333 0 0 -1.3333 212.67 43.978)" d="m0 0c0-0.94-0.762-1.702-1.701-1.702-0.941 0-1.702 0.762-1.702 1.702s0.761 1.702 1.702 1.702c0.939 0 1.701-0.762 1.701-1.702" clip-path="url(#clipPath88)"/><path transform="matrix(1.3333 0 0 -1.3333 191.73 31.146)" d="m0 0c-0.678 0-1.228-0.55-1.228-1.227s0.55-1.228 1.228-1.228c0.677 0 1.228 0.551 1.228 1.228s-0.551 1.227-1.228 1.227m0-3.403c-1.2 0-2.177 0.976-2.177 2.176s0.977 2.176 2.177 2.176c1.199 0 2.176-0.976 2.176-2.176s-0.977-2.176-2.176-2.176" clip-path="url(#clipPath90)"/><path transform="matrix(1.3333 0 0 -1.3333 162.99 54.223)" d="m0 0c0-0.94-0.762-1.702-1.702-1.702s-1.702 0.762-1.702 1.702 0.762 1.702 1.702 1.702 1.702-0.762 1.702-1.702" clip-path="url(#clipPath92)"/><path transform="matrix(1.3333 0 0 -1.3333 221.89 48.479)" d="m0 0c0-0.94-0.762-1.702-1.701-1.702-0.941 0-1.702 0.762-1.702 1.702s0.761 1.702 1.702 1.702c0.939 0 1.701-0.762 1.701-1.702" clip-path="url(#clipPath94)"/></g><path transform="matrix(1.3333 0 0 -1.3333 213.69 72.751)" d="m0 0c-0.677 0-1.228-0.551-1.228-1.228 0-0.676 0.551-1.227 1.228-1.227 0.678 0 1.228 0.551 1.228 1.227 0 0.677-0.55 1.228-1.228 1.228m0-3.404c-1.199 0-2.176 0.977-2.176 2.176 0 1.2 0.977 2.177 2.176 2.177 1.2 0 2.177-0.977 2.177-2.177 0-1.199-0.977-2.176-2.177-2.176" clip-path="url(#clipPath96)" fill="#19a08d"/><path transform="matrix(1.3333 0 0 -1.3333 211.79 79.019)" d="m0 0c0-0.94-0.762-1.702-1.702-1.702s-1.702 0.762-1.702 1.702 0.762 1.702 1.702 1.702 1.702-0.762 1.702-1.702" clip-path="url(#clipPath98)" fill="#e64424"/><path transform="matrix(1.3333 0 0 -1.3333 227.93 74.687)" d="m0 0c0-0.932-0.756-1.687-1.687-1.687-0.933 0-1.688 0.755-1.688 1.687s0.755 1.687 1.688 1.687c0.931 0 1.687-0.755 1.687-1.687" clip-path="url(#clipPath100)" fill="#19a08d"/><path transform="matrix(1.3333 0 0 -1.3333 243.26 68.498)" d="m0 0c-0.677 0-1.228-0.551-1.228-1.228 0-0.676 0.551-1.227 1.228-1.227 0.678 0 1.229 0.551 1.229 1.227 0 0.677-0.551 1.228-1.229 1.228m0-3.404c-1.199 0-2.176 0.977-2.176 2.176 0 1.2 0.977 2.177 2.176 2.177 1.2 0 2.177-0.977 2.177-2.177 0-1.199-0.977-2.176-2.177-2.176" clip-path="url(#clipPath102)" fill="#e64424"/><path transform="matrix(1.3333 0 0 -1.3333 250.83 115.47)" d="m0 0c0-0.94-0.762-1.702-1.702-1.702s-1.701 0.762-1.701 1.702c0 0.939 0.761 1.702 1.701 1.702s1.702-0.763 1.702-1.702" clip-path="url(#clipPath104)" fill="#19a08d"/><path transform="matrix(1.3333 0 0 -1.3333 235.62 139.84)" d="m0 0c0-0.939-0.762-1.701-1.701-1.701-0.941 0-1.702 0.762-1.702 1.701 0 0.94 0.761 1.702 1.702 1.702 0.939 0 1.701-0.762 1.701-1.702" clip-path="url(#clipPath106)" fill="#e64424"/><path transform="matrix(1.3333 0 0 -1.3333 224.43 163.48)" d="m0 0c0-0.94-0.763-1.702-1.702-1.702-0.941 0-1.702 0.762-1.702 1.702 0 0.939 0.761 1.701 1.702 1.701 0.939 0 1.702-0.762 1.702-1.701" clip-path="url(#clipPath108)" fill="#e64424"/><path transform="matrix(1.3333 0 0 -1.3333 225.49 149.2)" d="m0 0c0-0.94-0.762-1.702-1.702-1.702s-1.702 0.762-1.702 1.702c0 0.939 0.762 1.701 1.702 1.701s1.702-0.762 1.702-1.701" clip-path="url(#clipPath110)" fill="#19a08d"/><g fill="#e64424"><path transform="matrix(1.3333 0 0 -1.3333 212.67 132.76)" d="m0 0c0-0.939-0.762-1.701-1.701-1.701-0.941 0-1.702 0.762-1.702 1.701 0 0.94 0.761 1.702 1.702 1.702 0.939 0 1.701-0.762 1.701-1.702" clip-path="url(#clipPath112)"/><path transform="matrix(1.3333 0 0 -1.3333 221.89 134.27)" d="m0 0c0-0.94-0.762-1.702-1.701-1.702-0.941 0-1.702 0.762-1.702 1.702 0 0.939 0.761 1.702 1.702 1.702 0.939 0 1.701-0.763 1.701-1.702" clip-path="url(#clipPath114)"/><path transform="matrix(1.3333 0 0 -1.3333 236.37 57.021)" d="m0 0c0-0.94-0.762-1.702-1.702-1.702s-1.701 0.762-1.701 1.702c0 0.939 0.761 1.702 1.701 1.702s1.702-0.763 1.702-1.702" clip-path="url(#clipPath116)"/></g><path transform="matrix(1.3333 0 0 -1.3333 237.84 51.519)" d="m0 0c0-0.932-0.756-1.687-1.687-1.687-0.932 0-1.688 0.755-1.688 1.687s0.756 1.687 1.688 1.687c0.931 0 1.687-0.755 1.687-1.687" clip-path="url(#clipPath118)" fill="#19a08d"/><g fill="#e64424"><path transform="matrix(1.3333 0 0 -1.3333 234.57 73.124)" d="m0 0c0-0.94-0.762-1.702-1.702-1.702s-1.701 0.762-1.701 1.702 0.761 1.702 1.701 1.702 1.702-0.762 1.702-1.702" clip-path="url(#clipPath120)"/><path transform="matrix(1.3333 0 0 -1.3333 213.69 103.28)" d="m0 0c0-0.94-0.762-1.702-1.702-1.702s-1.701 0.762-1.701 1.702 0.761 1.702 1.701 1.702 1.702-0.762 1.702-1.702" clip-path="url(#clipPath122)"/><path transform="matrix(1.3333 0 0 -1.3333 178.94 53.398)" d="m0 0c0-0.665-0.538-1.204-1.203-1.204-0.664 0-1.203 0.539-1.203 1.204s0.539 1.204 1.203 1.204c0.665 0 1.203-0.539 1.203-1.204" clip-path="url(#clipPath124)"/><path transform="matrix(1.3333 0 0 -1.3333 177.74 58.315)" d="m0 0c0-0.665-0.539-1.203-1.203-1.203-0.665 0-1.204 0.538-1.204 1.203s0.539 1.204 1.204 1.204c0.664 0 1.203-0.539 1.203-1.204" clip-path="url(#clipPath126)"/></g><path transform="matrix(1.3333 0 0 -1.3333 160.5 61.184)" d="m0 0c0.037-0.658-0.467-1.221-1.124-1.258-0.658-0.037-1.222 0.466-1.259 1.124-0.036 0.658 0.467 1.222 1.125 1.259s1.221-0.467 1.258-1.125" clip-path="url(#clipPath128)" fill="#19a08d"/><path transform="matrix(1.3333 0 0 -1.3333 183.18 87.054)" d="m0 0c0.037-0.658-0.467-1.221-1.125-1.258s-1.221 0.466-1.258 1.124 0.467 1.222 1.124 1.259c0.658 0.037 1.222-0.467 1.259-1.125" clip-path="url(#clipPath130)" fill="#19a08d"/><path transform="matrix(1.3333 0 0 -1.3333 196.86 56.71)" d="m0 0c0-0.665-0.539-1.204-1.203-1.204-0.665 0-1.204 0.539-1.204 1.204s0.539 1.203 1.204 1.203c0.664 0 1.203-0.538 1.203-1.203" clip-path="url(#clipPath132)" fill="#e64424"/><path transform="matrix(1.3333 0 0 -1.3333 193.27 65.244)" d="m0 0c0-0.659-0.534-1.193-1.193-1.193s-1.193 0.534-1.193 1.193 0.534 1.193 1.193 1.193 1.193-0.534 1.193-1.193" clip-path="url(#clipPath134)" fill="#19a08d"/><path transform="matrix(1.3333 0 0 -1.3333 248.56 94.332)" d="m0 0c0-0.665-0.538-1.203-1.203-1.203s-1.203 0.538-1.203 1.203 0.538 1.204 1.203 1.204 1.203-0.539 1.203-1.204" clip-path="url(#clipPath136)" fill="#e64424"/><path transform="matrix(1.3333 0 0 -1.3333 220.56 84.222)" d="m0 0c0-0.665-0.539-1.204-1.204-1.204-0.664 0-1.203 0.539-1.203 1.204s0.539 1.203 1.203 1.203c0.665 0 1.204-0.538 1.204-1.203" clip-path="url(#clipPath138)" fill="#19a08d"/><path transform="matrix(1.3333 0 0 -1.3333 216.9 79.684)" d="m0 0c0-0.665-0.539-1.204-1.204-1.204-0.664 0-1.203 0.539-1.203 1.204s0.539 1.203 1.203 1.203c0.665 0 1.204-0.538 1.204-1.203" clip-path="url(#clipPath140)" fill="#19a08d"/><path transform="matrix(1.3333 0 0 -1.3333 222.16 77.322)" d="m0 0c0-0.665-0.539-1.204-1.203-1.204-0.665 0-1.204 0.539-1.204 1.204s0.539 1.203 1.204 1.203c0.664 0 1.203-0.538 1.203-1.203" clip-path="url(#clipPath142)" fill="#e64424"/><path transform="matrix(1.3333 0 0 -1.3333 220.11 72.783)" d="m0 0c0-0.665-0.539-1.204-1.203-1.204-0.665 0-1.203 0.539-1.203 1.204s0.538 1.203 1.203 1.203c0.664 0 1.203-0.538 1.203-1.203" clip-path="url(#clipPath144)" fill="#e64424"/><g fill="#19a08d"><path transform="matrix(1.3333 0 0 -1.3333 206.92 40.021)" d="m0 0c0-0.659-0.534-1.193-1.193-1.193s-1.194 0.534-1.194 1.193 0.535 1.193 1.194 1.193 1.193-0.534 1.193-1.193" clip-path="url(#clipPath146)"/><path transform="matrix(1.3333 0 0 -1.3333 187.21 33.434)" d="m0 0c0-0.659-0.534-1.193-1.192-1.193-0.66 0-1.194 0.534-1.194 1.193s0.534 1.193 1.194 1.193c0.658 0 1.192-0.534 1.192-1.193" clip-path="url(#clipPath148)"/><path transform="matrix(1.3333 0 0 -1.3333 198.58 35.952)" d="m0 0c0-0.659-0.534-1.193-1.193-1.193-0.66 0-1.194 0.534-1.194 1.193s0.534 1.193 1.194 1.193c0.659 0 1.193-0.534 1.193-1.193" clip-path="url(#clipPath150)"/></g><path transform="matrix(1.3333 0 0 -1.3333 181.06 35.052)" d="m0 0c0-0.665-0.539-1.203-1.203-1.203-0.665 0-1.204 0.538-1.204 1.203s0.539 1.204 1.204 1.204c0.664 0 1.203-0.539 1.203-1.204" clip-path="url(#clipPath152)" fill="#e64424"/><path transform="matrix(1.3333 0 0 -1.3333 176.44 37.543)" d="m0 0c0-0.659-0.534-1.193-1.193-1.193-0.66 0-1.194 0.534-1.194 1.193s0.534 1.193 1.194 1.193c0.659 0 1.193-0.534 1.193-1.193" clip-path="url(#clipPath154)" fill="#19a08d"/><g fill="#e64424"><path transform="matrix(1.3333 0 0 -1.3333 200.31 31.178)" d="m0 0c0-0.665-0.538-1.203-1.203-1.203s-1.203 0.538-1.203 1.203 0.538 1.204 1.203 1.204 1.203-0.539 1.203-1.204" clip-path="url(#clipPath156)"/><path transform="matrix(1.3333 0 0 -1.3333 235.51 67.267)" d="m0 0c0-0.665-0.539-1.203-1.203-1.203-0.665 0-1.204 0.538-1.204 1.203s0.539 1.204 1.204 1.204c0.664 0 1.203-0.539 1.203-1.204" clip-path="url(#clipPath158)"/><path transform="matrix(1.3333 0 0 -1.3333 240.99 65.978)" d="m0 0c0-0.665-0.539-1.203-1.204-1.203-0.664 0-1.203 0.538-1.203 1.203s0.539 1.204 1.203 1.204c0.665 0 1.204-0.539 1.204-1.204" clip-path="url(#clipPath160)"/><path transform="matrix(1.3333 0 0 -1.3333 225.55 43.978)" d="m0 0c0-0.665-0.539-1.204-1.203-1.204-0.665 0-1.203 0.539-1.203 1.204s0.538 1.204 1.203 1.204c0.664 0 1.203-0.539 1.203-1.204" clip-path="url(#clipPath162)"/></g><g fill="#19a08d"><path transform="matrix(1.3333 0 0 -1.3333 244.97 62.507)" d="m0 0c0-0.659-0.534-1.193-1.192-1.193-0.66 0-1.194 0.534-1.194 1.193s0.534 1.193 1.194 1.193c0.658 0 1.192-0.534 1.192-1.193" clip-path="url(#clipPath164)"/><path transform="matrix(1.3333 0 0 -1.3333 230.93 54.034)" d="m0 0c0-0.659-0.534-1.193-1.193-1.193-0.66 0-1.194 0.534-1.194 1.193s0.534 1.193 1.194 1.193c0.659 0 1.193-0.534 1.193-1.193" clip-path="url(#clipPath166)"/><path transform="matrix(1.3333 0 0 -1.3333 247.26 58.091)" d="m0 0c0-0.659-0.534-1.193-1.193-1.193-0.66 0-1.194 0.534-1.194 1.193s0.534 1.193 1.194 1.193c0.659 0 1.193-0.534 1.193-1.193" clip-path="url(#clipPath168)"/></g><path transform="matrix(1.3333 0 0 -1.3333 232.68 50.083)" d="m0 0c0-0.665-0.538-1.204-1.203-1.204s-1.203 0.539-1.203 1.204 0.538 1.203 1.203 1.203 1.203-0.538 1.203-1.203" clip-path="url(#clipPath170)" fill="#e64424"/><g fill="#19a08d"><path transform="matrix(1.3333 0 0 -1.3333 239.16 70.525)" d="m0 0c0-0.659-0.534-1.193-1.193-1.193s-1.193 0.534-1.193 1.193 0.534 1.193 1.193 1.193 1.193-0.534 1.193-1.193" clip-path="url(#clipPath172)"/><path transform="matrix(1.3333 0 0 -1.3333 240.2 74.687)" d="m0 0c0-0.659-0.534-1.193-1.193-1.193s-1.193 0.534-1.193 1.193 0.534 1.193 1.193 1.193 1.193-0.534 1.193-1.193" clip-path="url(#clipPath174)"/><path transform="matrix(1.3333 0 0 -1.3333 245.25 75.025)" d="m0 0c0-0.659-0.534-1.193-1.193-1.193-0.66 0-1.194 0.534-1.194 1.193s0.534 1.193 1.194 1.193c0.659 0 1.193-0.534 1.193-1.193" clip-path="url(#clipPath176)"/><path transform="matrix(1.3333 0 0 -1.3333 255.96 87.723)" d="m0 0c0-0.659-0.534-1.193-1.193-1.193-0.66 0-1.194 0.534-1.194 1.193s0.534 1.193 1.194 1.193c0.659 0 1.193-0.534 1.193-1.193" clip-path="url(#clipPath178)"/></g><g fill="#e64424"><path transform="matrix(1.3333 0 0 -1.3333 254.07 118.66)" d="m0 0c0-0.665-0.538-1.203-1.203-1.203-0.664 0-1.203 0.538-1.203 1.203 0 0.664 0.539 1.203 1.203 1.203 0.665 0 1.203-0.539 1.203-1.203" clip-path="url(#clipPath180)"/><path transform="matrix(1.3333 0 0 -1.3333 258.46 101.01)" d="m0 0c0-0.665-0.538-1.203-1.203-1.203s-1.203 0.538-1.203 1.203 0.538 1.204 1.203 1.204 1.203-0.539 1.203-1.204" clip-path="url(#clipPath182)"/><path transform="matrix(1.3333 0 0 -1.3333 270.44 132.67)" d="m0 0c0-0.664-0.538-1.203-1.203-1.203-0.664 0-1.203 0.539-1.203 1.203 0 0.665 0.539 1.203 1.203 1.203 0.665 0 1.203-0.538 1.203-1.203" clip-path="url(#clipPath184)"/></g><g fill="#19a08d"><path transform="matrix(1.3333 0 0 -1.3333 270.76 137.57)" d="m0 0c0-0.664-0.539-1.203-1.204-1.203-0.664 0-1.203 0.539-1.203 1.203 0 0.665 0.539 1.203 1.203 1.203 0.665 0 1.204-0.538 1.204-1.203" clip-path="url(#clipPath186)"/><path transform="matrix(1.3333 0 0 -1.3333 268.68 90.893)" d="m0 0c0-0.659-0.534-1.193-1.193-1.193-0.66 0-1.194 0.534-1.194 1.193s0.534 1.193 1.194 1.193c0.659 0 1.193-0.534 1.193-1.193" clip-path="url(#clipPath188)"/><path transform="matrix(1.3333 0 0 -1.3333 250.76 121.84)" d="m0 0c0-0.664-0.539-1.203-1.203-1.203-0.665 0-1.204 0.539-1.204 1.203 0 0.665 0.539 1.204 1.204 1.204 0.664 0 1.203-0.539 1.203-1.204" clip-path="url(#clipPath190)"/><path transform="matrix(1.3333 0 0 -1.3333 247.13 133.78)" d="m0 0c0-0.665-0.538-1.204-1.203-1.204-0.664 0-1.203 0.539-1.203 1.204 0 0.664 0.539 1.203 1.203 1.203 0.665 0 1.203-0.539 1.203-1.203" clip-path="url(#clipPath192)"/><path transform="matrix(1.3333 0 0 -1.3333 242.6 137.57)" d="m0 0c0-0.664-0.539-1.203-1.203-1.203-0.665 0-1.204 0.539-1.204 1.203 0 0.665 0.539 1.203 1.204 1.203 0.664 0 1.203-0.538 1.203-1.203" clip-path="url(#clipPath194)"/></g><path transform="matrix(1.3333 0 0 -1.3333 248.56 66.119)" d="m0 0c0-0.665-0.538-1.204-1.203-1.204s-1.203 0.539-1.203 1.204 0.538 1.203 1.203 1.203 1.203-0.538 1.203-1.203" clip-path="url(#clipPath196)" fill="#e64424"/><path transform="matrix(1.3333 0 0 -1.3333 260.04 81.154)" d="m0 0c0-0.659-0.534-1.193-1.193-1.193-0.66 0-1.194 0.534-1.194 1.193s0.534 1.193 1.194 1.193c0.659 0 1.193-0.534 1.193-1.193" clip-path="url(#clipPath198)" fill="#19a08d"/><path transform="matrix(1.3333 0 0 -1.3333 236.56 110.19)" d="m0 0c0-0.664-0.539-1.203-1.203-1.203-0.665 0-1.203 0.539-1.203 1.203 0 0.665 0.538 1.203 1.203 1.203 0.664 0 1.203-0.538 1.203-1.203" clip-path="url(#clipPath200)" fill="#e64424"/><path transform="matrix(1.3333 0 0 -1.3333 225.55 101.78)" d="m0 0c0-0.665-0.539-1.203-1.203-1.203-0.665 0-1.203 0.538-1.203 1.203s0.538 1.204 1.203 1.204c0.664 0 1.203-0.539 1.203-1.204" clip-path="url(#clipPath202)" fill="#e64424"/><g fill="#19a08d"><path transform="matrix(1.3333 0 0 -1.3333 226.61 106.06)" d="m0 0c0-0.659-0.534-1.194-1.192-1.194-0.66 0-1.194 0.535-1.194 1.194s0.534 1.193 1.194 1.193c0.658 0 1.192-0.534 1.192-1.193" clip-path="url(#clipPath204)"/><path transform="matrix(1.3333 0 0 -1.3333 230.69 128.29)" d="m0 0c0-0.664-0.539-1.203-1.204-1.203-0.664 0-1.203 0.539-1.203 1.203 0 0.665 0.539 1.204 1.203 1.204 0.665 0 1.204-0.539 1.204-1.204" clip-path="url(#clipPath206)"/><path transform="matrix(1.3333 0 0 -1.3333 231.01 157.84)" d="m0 0c0-0.664-0.539-1.203-1.204-1.203-0.664 0-1.203 0.539-1.203 1.203 0 0.665 0.539 1.203 1.203 1.203 0.665 0 1.204-0.538 1.204-1.203" clip-path="url(#clipPath208)"/></g><path transform="matrix(1.3333 0 0 -1.3333 237.22 157.49)" d="m0 0c0-0.665-0.539-1.203-1.204-1.203-0.664 0-1.203 0.538-1.203 1.203 0 0.664 0.539 1.203 1.203 1.203 0.665 0 1.204-0.539 1.204-1.203" clip-path="url(#clipPath210)" fill="#e64424"/><path transform="matrix(1.3333 0 0 -1.3333 240.99 153.07)" d="m0 0c0-0.665-0.539-1.204-1.204-1.204-0.664 0-1.203 0.539-1.203 1.204 0 0.664 0.539 1.203 1.203 1.203 0.665 0 1.204-0.539 1.204-1.203" clip-path="url(#clipPath212)" fill="#e64424"/><path transform="matrix(1.3333 0 0 -1.3333 230.69 163.48)" d="m0 0c0-0.665-0.539-1.204-1.204-1.204-0.664 0-1.203 0.539-1.203 1.204 0 0.664 0.539 1.203 1.203 1.203 0.665 0 1.204-0.539 1.204-1.203" clip-path="url(#clipPath214)" fill="#19a08d"/><g fill="#e64424"><path transform="matrix(1.3333 0 0 -1.3333 227.39 154.28)" d="m0 0c0-0.664-0.539-1.203-1.203-1.203-0.665 0-1.204 0.539-1.204 1.203 0 0.665 0.539 1.204 1.204 1.204 0.664 0 1.203-0.539 1.203-1.204" clip-path="url(#clipPath216)"/><path transform="matrix(1.3333 0 0 -1.3333 216.31 148.42)" d="m0 0c0-0.665-0.539-1.204-1.204-1.204-0.664 0-1.203 0.539-1.203 1.204 0 0.664 0.539 1.203 1.203 1.203 0.665 0 1.204-0.539 1.204-1.203" clip-path="url(#clipPath218)"/><path transform="matrix(1.3333 0 0 -1.3333 217.92 153.07)" d="m0 0c0-0.665-0.539-1.204-1.203-1.204-0.665 0-1.204 0.539-1.204 1.204 0 0.664 0.539 1.203 1.204 1.203 0.664 0 1.203-0.539 1.203-1.203" clip-path="url(#clipPath220)"/></g><path transform="matrix(1.3333 0 0 -1.3333 222.09 97.003)" d="m0 0c0-0.659-0.534-1.193-1.192-1.193-0.66 0-1.194 0.534-1.194 1.193s0.534 1.193 1.194 1.193c0.658 0 1.192-0.534 1.192-1.193" clip-path="url(#clipPath222)" fill="#19a08d"/><path transform="matrix(1.3333 0 0 -1.3333 207.25 91.682)" d="m0 0c0-0.665-0.538-1.203-1.203-1.203-0.664 0-1.203 0.538-1.203 1.203s0.539 1.204 1.203 1.204c0.665 0 1.203-0.539 1.203-1.204" clip-path="url(#clipPath224)" fill="#e64424"/><path transform="matrix(1.3333 0 0 -1.3333 207.67 99.236)" d="m0 0c0-0.659-0.534-1.193-1.193-1.193s-1.193 0.534-1.193 1.193 0.534 1.193 1.193 1.193 1.193-0.534 1.193-1.193" clip-path="url(#clipPath226)" fill="#19a08d"/><path transform="matrix(1.3333 0 0 -1.3333 216.31 109.25)" d="m0 0c0-0.664-0.539-1.203-1.204-1.203-0.664 0-1.203 0.539-1.203 1.203 0 0.665 0.539 1.203 1.203 1.203 0.665 0 1.204-0.538 1.204-1.203" clip-path="url(#clipPath228)" fill="#19a08d"/><path transform="matrix(1.3333 0 0 -1.3333 214.28 115.47)" d="m0 0c0-0.665-0.539-1.203-1.204-1.203-0.664 0-1.203 0.538-1.203 1.203 0 0.664 0.539 1.203 1.203 1.203 0.665 0 1.204-0.539 1.204-1.203" clip-path="url(#clipPath230)" fill="#e64424"/><path transform="matrix(1.3333 0 0 -1.3333 222.9 115.47)" d="m0 0c0-0.665-0.538-1.203-1.203-1.203-0.664 0-1.203 0.538-1.203 1.203 0 0.664 0.539 1.203 1.203 1.203 0.665 0 1.203-0.539 1.203-1.203" clip-path="url(#clipPath232)" fill="#19a08d"/><path transform="matrix(1.3333 0 0 -1.3333 221.29 120.24)" d="m0 0c0-0.665-0.538-1.204-1.203-1.204s-1.203 0.539-1.203 1.204c0 0.664 0.538 1.203 1.203 1.203s1.203-0.539 1.203-1.203" clip-path="url(#clipPath234)" fill="#e64424"/><path transform="matrix(1.3333 0 0 -1.3333 211.12 109.25)" d="m0 0c0-0.664-0.538-1.203-1.203-1.203-0.664 0-1.203 0.539-1.203 1.203 0 0.665 0.539 1.203 1.203 1.203 0.665 0 1.203-0.538 1.203-1.203" clip-path="url(#clipPath236)" fill="#19a08d"/><path transform="matrix(1.3333 0 0 -1.3333 206.87 82.618)" d="m0 0c0-0.665-0.538-1.203-1.203-1.203-0.664 0-1.203 0.538-1.203 1.203s0.539 1.204 1.203 1.204c0.665 0 1.203-0.539 1.203-1.204" clip-path="url(#clipPath238)" fill="#19a08d"/><path transform="matrix(1.3333 0 0 -1.3333 198.7 86.594)" d="m0 0c0-0.665-0.539-1.204-1.203-1.204-0.665 0-1.203 0.539-1.203 1.204s0.538 1.203 1.203 1.203c0.664 0 1.203-0.538 1.203-1.203" clip-path="url(#clipPath240)" fill="#e64424"/><path transform="matrix(1.3333 0 0 -1.3333 197.69 62.092)" d="m0 0c0-0.659-0.534-1.193-1.193-1.193-0.66 0-1.194 0.534-1.194 1.193s0.534 1.193 1.194 1.193c0.659 0 1.193-0.534 1.193-1.193" clip-path="url(#clipPath242)" fill="#19a08d"/><path transform="matrix(1.3333 0 0 -1.3333 197.69 67.561)" d="m0 0c0-0.659-0.534-1.193-1.193-1.193-0.66 0-1.194 0.534-1.194 1.193s0.534 1.193 1.194 1.193c0.659 0 1.193-0.534 1.193-1.193" clip-path="url(#clipPath244)" fill="#19a08d"/><g fill="#e64424"><path transform="matrix(1.3333 0 0 -1.3333 201.3 65.529)" d="m0 0c0-0.665-0.539-1.203-1.203-1.203-0.665 0-1.204 0.538-1.204 1.203s0.539 1.204 1.204 1.204c0.664 0 1.203-0.539 1.203-1.204" clip-path="url(#clipPath246)"/><path transform="matrix(1.3333 0 0 -1.3333 180.01 63.613)" d="m0 0c0-0.94-0.763-1.702-1.702-1.702-0.941 0-1.702 0.762-1.702 1.702s0.761 1.702 1.702 1.702c0.939 0 1.702-0.762 1.702-1.702" clip-path="url(#clipPath248)"/><path transform="matrix(1.3333 0 0 -1.3333 162.11 72.982)" d="m0 0c-0.677 0-1.227-0.551-1.227-1.228 0-0.676 0.55-1.227 1.227-1.227s1.228 0.551 1.228 1.227c0 0.677-0.551 1.228-1.228 1.228m0-3.404c-1.2 0-2.176 0.977-2.176 2.176 0 1.2 0.976 2.177 2.176 2.177 1.199 0 2.176-0.977 2.176-2.177 0-1.199-0.977-2.176-2.176-2.176" clip-path="url(#clipPath250)"/></g><path transform="matrix(1.3333 0 0 -1.3333 177.1 86.131)" d="m0 0c0-0.932-0.756-1.687-1.687-1.687-0.932 0-1.688 0.755-1.688 1.687s0.756 1.687 1.688 1.687c0.931 0 1.687-0.755 1.687-1.687" clip-path="url(#clipPath252)" fill="#19a08d"/><path transform="matrix(1.3333 0 0 -1.3333 161.75 68.152)" d="m0 0c0-0.94-0.762-1.702-1.702-1.702s-1.701 0.762-1.701 1.702 0.761 1.702 1.701 1.702 1.702-0.762 1.702-1.702" clip-path="url(#clipPath254)" fill="#e64424"/><path transform="matrix(1.3333 0 0 -1.3333 191.38 58.283)" d="m0 0c-0.677 0-1.228-0.55-1.228-1.227s0.551-1.228 1.228-1.228 1.227 0.551 1.227 1.228-0.55 1.227-1.227 1.227m0-3.403c-1.199 0-2.176 0.976-2.176 2.176s0.977 2.176 2.176 2.176c1.2 0 2.176-0.976 2.176-2.176s-0.976-2.176-2.176-2.176" clip-path="url(#clipPath256)" fill="#19a08d"/><g fill="#e64424"><path transform="matrix(1.3333 0 0 -1.3333 231.97 135.54)" d="m0 0c-4.775 0-8.848 3.407-9.686 8.101-0.091 0.516 0.251 1.008 0.768 1.1 0.524 0.093 1.01-0.252 1.101-0.766 0.674-3.789 3.963-6.538 7.817-6.538 4.38 0 7.942 3.563 7.942 7.943 0 2.182-0.868 4.219-2.443 5.73-0.378 0.364-0.391 0.964-0.028 1.342 0.363 0.379 0.965 0.39 1.341 0.027 1.953-1.873 3.028-4.395 3.028-7.099 0-5.426-4.414-9.84-9.84-9.84" clip-path="url(#clipPath258)"/><path transform="matrix(1.3333 0 0 -1.3333 263.81 87.899)" d="m0 0c-3.083 0-6.326 1.426-9.902 2.997-3.311 1.454-7.064 3.102-11.194 3.77-0.258 0.042-0.434 0.285-0.391 0.544 0.04 0.259 0.287 0.435 0.543 0.393 4.25-0.687 8.06-2.362 11.423-3.839 5.017-2.204 9.349-4.109 13.301-1.968 0.231 0.124 0.517 0.04 0.643-0.191 0.125-0.23 0.04-0.518-0.191-0.643-1.387-0.752-2.793-1.063-4.232-1.063" clip-path="url(#clipPath260)"/><path transform="matrix(1.3333 0 0 -1.3333 225.11 160.55)" d="m0 0c-0.146 0-0.292 0.068-0.385 0.197-2.184 3.017-12.653 19.107-4.171 39.66 0.099 0.244 0.377 0.36 0.618 0.258 0.244-0.099 0.359-0.377 0.258-0.619-8.288-20.088 1.931-35.798 4.064-38.743 0.154-0.212 0.105-0.509-0.107-0.663-0.083-0.06-0.18-0.09-0.277-0.09" clip-path="url(#clipPath262)"/></g><path transform="matrix(1.3333 0 0 -1.3333 193.36 50.499)" d="m0 0c0-0.878-0.711-1.59-1.589-1.59s-1.59 0.712-1.59 1.59 0.712 1.589 1.59 1.589 1.589-0.711 1.589-1.589" clip-path="url(#clipPath264)" fill="#19a08d"/><path transform="matrix(1.3333 0 0 -1.3333 261.75 93.667)" d="m0 0c0-0.87-0.706-1.576-1.576-1.576-0.871 0-1.576 0.706-1.576 1.576 0 0.871 0.705 1.576 1.576 1.576 0.87 0 1.576-0.705 1.576-1.576" clip-path="url(#clipPath266)" fill="#19a08d"/><g fill="#f4e8c3"><path transform="matrix(1.3333 0 0 -1.3333 227.67 66.602)" d="m0 0c0-0.878-0.712-1.589-1.59-1.589s-1.59 0.711-1.59 1.589 0.712 1.59 1.59 1.59 1.59-0.712 1.59-1.59" clip-path="url(#clipPath268)"/><path transform="matrix(1.3333 0 0 -1.3333 230.55 88.139)" d="m0 0c0-0.878-0.712-1.59-1.59-1.59s-1.589 0.712-1.589 1.59 0.711 1.589 1.589 1.589 1.59-0.711 1.59-1.589" clip-path="url(#clipPath270)"/><path transform="matrix(1.3333 0 0 -1.3333 226.3 140.6)" d="m0 0c0-0.878-0.712-1.59-1.59-1.59s-1.589 0.712-1.589 1.59 0.711 1.59 1.589 1.59 1.59-0.712 1.59-1.59" clip-path="url(#clipPath272)"/><path transform="matrix(1.3333 0 0 -1.3333 239.34 121.84)" d="m0 0c0-0.878-0.711-1.589-1.589-1.589s-1.59 0.711-1.59 1.589 0.712 1.59 1.59 1.59 1.589-0.712 1.589-1.59" clip-path="url(#clipPath274)"/></g><path transform="matrix(1.3333 0 0 -1.3333 186.96 67.866)" d="m0 0c0-0.87-0.705-1.576-1.576-1.576-0.87 0-1.576 0.706-1.576 1.576 0 0.871 0.706 1.576 1.576 1.576 0.871 0 1.576-0.705 1.576-1.576" clip-path="url(#clipPath276)" fill="#19a08d"/><g fill="#f4e8c3"><path transform="matrix(1.3333 0 0 -1.3333 185.83 57.65)" d="m0 0c0-0.878-0.711-1.589-1.589-1.589s-1.59 0.711-1.59 1.589 0.712 1.59 1.59 1.59 1.589-0.712 1.589-1.59" clip-path="url(#clipPath278)"/><path transform="matrix(1.3333 0 0 -1.3333 234.31 102.79)" d="m0 0c0-0.878-0.712-1.589-1.59-1.589s-1.589 0.711-1.589 1.589 0.711 1.59 1.589 1.59 1.59-0.712 1.59-1.59" clip-path="url(#clipPath280)"/><path transform="matrix(1.3333 0 0 -1.3333 253.94 76.279)" d="m0 0c0-0.878-0.712-1.589-1.59-1.589s-1.59 0.711-1.59 1.589 0.712 1.59 1.59 1.59 1.59-0.712 1.59-1.59" clip-path="url(#clipPath282)"/></g><path transform="matrix(1.3333 0 0 -1.3333 213.91 87.143)" d="m0 0c0-0.878-0.712-1.589-1.59-1.589s-1.59 0.711-1.59 1.589 0.712 1.59 1.59 1.59 1.59-0.712 1.59-1.59" clip-path="url(#clipPath284)" fill="#e64424"/></g></g></svg>
